<svg xmlns="http://www.w3.org/2000/svg" xmlns:xlink="http://www.w3.org/1999/xlink" version="1.1" x="0px" y="0px" viewBox="0 0 66 82.5" enable-background="new 0 0 66 66" xml:space="preserve"><g><path d="M29.394,63h-1.5938V46.4004h5.1519c0.5522,0,1-0.4478,1-1V34h11.4482c0.5522,0,1-0.4478,1-1s-0.4478-1-1-1H33.9521V20.6001   c0-0.5522-0.4478-1-1-1h-5.1519v-4.1997h10.3999v11.3999c0,0.5522,0.4478,1,1,1s1-0.4478,1-1v-5.2002h10.3999v4.2002h-5.1997   c-0.5522,0-1,0.4478-1,1s0.4478,1,1,1h5.1997v11.3999c0,0.5522,0.4478,1,1,1s1-0.4478,1-1V34h4.2002v22.8003h-5.2002   c-0.5522,0-1,0.4478-1,1s0.4478,1,1,1h6.2002c0.5522,0,1-0.4478,1-1V33c0-0.5522-0.4478-1-1-1h-5.2002V15.5806h5.2002   c0.5522,0,1-0.4478,1-1V8.2002c0-0.5522-0.4478-1-1-1h-6.2002c-0.5522,0-1,0.4478-1,1s0.4478,1,1,1h5.2002v4.3804h-5.2002   c-0.5522,0-1,0.4478-1,1v5.0195H40.2002v-4.1997h5.2002c0.5522,0,1-0.4478,1-1V7.9839c0-0.5522-0.4478-1-1-1s-1,0.4478-1,1v5.4165   H33.9521V9.2002h5.248c0.5522,0,1-0.4478,1-1s-0.4478-1-1-1h-6.248c-0.5522,0-1,0.4478-1,1v5.2002h-5.1519h-5.2002V8.2002   c0-0.5522-0.4478-1-1-1s-1,0.4478-1,1v5.2002h-4.1997V8.2002c0-0.5522-0.4478-1-1-1H8.2002c-0.5522,0-1,0.4478-1,1s0.4478,1,1,1   h5.2002v5.2002c0,0.5522,0.4478,1,1,1h5.1997v4.1997H8.2002c-0.5522,0-1,0.4478-1,1s0.4478,1,1,1h11.3999v4.2002h-5.1997   c-0.5522,0-1,0.4478-1,1s0.4478,1,1,1h11.3999v10.3999H9.2002V34h11.3999c0.5522,0,1-0.4478,1-1s-0.4478-1-1-1H9.2002v-5.1997   c0-0.5522-0.4478-1-1-1s-1,0.4478-1,1v12.3999c0,0.5522,0.4478,1,1,1h11.376v5.2002c0,0.5522,0.4478,1,1,1s1-0.4478,1-1v-5.2002   h5.2241c0.5522,0,1-0.4478,1-1V26.8003c0-0.5522-0.4478-1-1-1h-5.2002V15.4004h4.2002v5.1997c0,0.5522,0.4478,1,1,1h5.1519v22.8003   h-5.1519c-0.5522,0-1,0.4478-1,1v5.1997H14.4004c-0.5522,0-1,0.4478-1,1s0.4478,1,1,1h5.1758v5.2002c0,0.5522,0.4478,1,1,1   s1-0.4478,1-1v-5.2002h4.2241V63H15.4004v-5.1997c0-0.5522-0.4478-1-1-1s-1,0.4478-1,1V63H3v-4.1997h5.2002c0.5522,0,1-0.4478,1-1   v-6.2002c0-0.5522-0.4478-1-1-1s-1,0.4478-1,1v5.2002H3V46.4004h11.4004c0.5522,0,1-0.4478,1-1s-0.4478-1-1-1H3v-29h5.2002   c0.5522,0,1-0.4478,1-1s-0.4478-1-1-1H3V3h22.8003v4.9839c0,0.5522,0.4478,1,1,1s1-0.4478,1-1V3h3.5737c0.5522,0,1-0.4478,1-1   s-0.4478-1-1-1H2C1.4478,1,1,1.4478,1,2v62c0,0.5522,0.4478,1,1,1h27.394c0.5522,0,1-0.4478,1-1S29.9463,63,29.394,63z"/><path d="M64,1H40.5815c-0.5522,0-1,0.4478-1,1s0.4478,1,1,1H63v22.8003h-4.1997v-5.2002c0-0.5522-0.4478-1-1-1s-1,0.4478-1,1   v6.2002c0,0.5522,0.4478,1,1,1H63V63H46.4004V51.6001c0-0.5522-0.4478-1-1-1s-1,0.4478-1,1V63h-4.2002v-5.1997   c0-0.5522-0.4478-1-1-1h-5.248v-4.2002h5.248c0.5522,0,1-0.4478,1-1V40.2002h4.2002v5.2002c0,0.5522,0.4478,1,1,1h5.1997v5.1997   c0,0.5522,0.4478,1,1,1s1-0.4478,1-1v-6.1997c0-0.5522-0.4478-1-1-1h-5.1997v-5.2002c0-0.5522-0.4478-1-1-1h-6.2002   c-0.5522,0-1,0.4478-1,1v11.3999h-5.248c-0.5522,0-1,0.4478-1,1v6.2002c0,0.5522,0.4478,1,1,1h5.248V63h-1.4624   c-0.5522,0-1,0.4478-1,1s0.4478,1,1,1H64c0.5522,0,1-0.4478,1-1V2C65,1.4478,64.5522,1,64,1z"/></g><text x="0" y="81" fill="#000000" font-size="5px" font-weight="bold" font-family="'Helvetica Neue', Helvetica, Arial-Unicode, Arial, Sans-serif">Created by ProSymbols</text><text x="0" y="86" fill="#000000" font-size="5px" font-weight="bold" font-family="'Helvetica Neue', Helvetica, Arial-Unicode, Arial, Sans-serif">from the Noun Project</text></svg>